<svg width="46" height="28" viewBox="0 0 46 28" fill="none" xmlns="http://www.w3.org/2000/svg">
<path d="M12.9663 10.1001C12.9663 10.6665 13.0238 11.1265 13.133 11.4658C13.2538 11.8021 13.409 12.1701 13.6218 12.5698C13.6896 12.6753 13.7265 12.7979 13.7281 12.9234C13.7281 13.0758 13.6361 13.231 13.4406 13.3834L12.4746 14.0274C12.3587 14.1111 12.2208 14.1591 12.0779 14.1654C11.9226 14.1654 11.7703 14.0906 11.6179 13.9526C11.4112 13.7303 11.2264 13.4886 11.0659 13.231C10.8958 12.936 10.7385 12.6339 10.5944 12.3254C9.39839 13.737 7.90051 14.4443 6.09501 14.4443C4.80988 14.4443 3.78351 14.0734 3.03601 13.3374C2.28563 12.6014 1.90326 11.6181 1.90326 10.3905C1.90326 9.08526 2.36326 8.02726 3.29476 7.22801C4.22913 6.42876 5.46826 6.03201 7.04376 6.03201C7.56126 6.03201 8.09888 6.07801 8.66526 6.15276C9.23164 6.23039 9.81526 6.35401 10.4248 6.49201V5.37076C10.4248 4.20351 10.1804 3.38989 9.70601 2.91551C9.21726 2.43826 8.38926 2.20826 7.21051 2.20826C6.67576 2.20826 6.12663 2.27151 5.56026 2.40951C4.99754 2.54344 4.4451 2.71734 3.90713 2.92989C3.73345 3.00853 3.55482 3.07575 3.37238 3.13114C3.29333 3.15726 3.21115 3.17273 3.12801 3.17714C2.91238 3.17714 2.80601 3.02189 2.80601 2.69989V1.94664C2.80601 1.70226 2.83476 1.51539 2.91238 1.41189C3.02824 1.27083 3.17608 1.15945 3.34363 1.08701C3.87551 0.811013 4.51951 0.581012 5.26988 0.397012C6.01738 0.195762 6.81376 0.106638 7.65614 0.106638C9.47601 0.106638 10.8071 0.520638 11.6639 1.34864C12.5063 2.17664 12.9346 3.43589 12.9346 5.12639V10.1001H12.9634H12.9663ZM6.75338 12.4318C7.25651 12.4318 7.77689 12.3398 8.32889 12.1558C8.88089 11.9718 9.36964 11.6325 9.78076 11.1725C10.0273 10.8901 10.2054 10.5546 10.3011 10.1921C10.3931 9.82126 10.4564 9.37852 10.4564 8.85526V8.21126C9.99203 8.09866 9.5217 8.01227 9.04764 7.95251C8.57093 7.89085 8.09081 7.85916 7.61014 7.85764C6.58376 7.85764 5.83626 8.05889 5.33026 8.47289C4.82426 8.88689 4.58276 9.47051 4.58276 10.2381C4.58276 10.9569 4.76388 11.4945 5.14626 11.8654C5.51426 12.2478 6.04901 12.4318 6.75338 12.4318ZM19.0383 14.0906C18.7623 14.0906 18.5783 14.0446 18.4575 13.9354C18.3339 13.8434 18.2275 13.6306 18.1355 13.3374L14.5418 1.47226C14.4719 1.27328 14.4255 1.06679 14.4038 0.857013C14.4038 0.612638 14.5245 0.474638 14.7689 0.474638H16.2696C16.5571 0.474638 16.7584 0.520638 16.8648 0.627013C16.9884 0.719013 17.0804 0.934638 17.1724 1.22501L19.7426 11.3881L22.1289 1.22501C22.2036 0.920263 22.2956 0.719013 22.4193 0.627013C22.6029 0.514595 22.8167 0.461398 23.0316 0.474638H24.2564C24.5439 0.474638 24.7451 0.520638 24.8659 0.627013C24.9895 0.719013 25.0959 0.934638 25.1591 1.22501L27.5741 11.5118L30.2191 1.22501C30.2683 1.00246 30.3743 0.796436 30.5268 0.627013C30.705 0.514297 30.9143 0.460953 31.1248 0.474638H32.5479C32.7923 0.474638 32.9303 0.598263 32.9303 0.857013C32.9303 0.934638 32.913 1.01226 32.9015 1.10426C32.8767 1.23475 32.8401 1.36273 32.7923 1.48664L29.1036 13.3518C29.0145 13.6594 28.9053 13.8606 28.7845 13.9526C28.6109 14.0637 28.4066 14.117 28.2009 14.105H26.887C26.5966 14.105 26.3983 14.059 26.2746 13.9526C26.151 13.8434 26.0446 13.645 25.9843 13.3374L23.6124 3.43876L21.2549 13.3259C21.1801 13.6335 21.0881 13.8319 20.9674 13.9383C20.8438 14.0475 20.6281 14.0935 20.355 14.0935H19.0383V14.0906ZM38.6975 14.5046C37.9036 14.5057 37.1123 14.4131 36.34 14.2286C35.5753 14.0446 34.9801 13.8434 34.5805 13.6134C34.3361 13.4754 34.1694 13.323 34.1061 13.1821C34.0478 13.0468 34.0175 12.9011 34.017 12.7538V11.9718C34.017 11.6498 34.1378 11.4945 34.3678 11.4945C34.4617 11.4947 34.5549 11.5103 34.6438 11.5405C34.7358 11.5721 34.8738 11.6325 35.0261 11.6958C35.5436 11.9258 36.1129 12.1098 36.708 12.2334C37.3204 12.3541 37.9155 12.4174 38.5279 12.4174C39.4939 12.4174 40.2414 12.2478 40.7618 11.9114C41.0117 11.7601 41.2171 11.5452 41.357 11.2886C41.4969 11.0321 41.5663 10.743 41.5581 10.4509C41.5633 10.2537 41.5294 10.0574 41.4583 9.87332C41.3873 9.68927 41.2805 9.5211 41.1441 9.37851C40.871 9.08526 40.3506 8.82364 39.6003 8.57926L37.3808 7.88926C36.2653 7.53564 35.4373 7.01239 34.9341 6.32239C34.4416 5.68483 34.1728 4.90277 34.1694 4.09714C34.1694 3.45314 34.3074 2.88389 34.5805 2.39226C34.8565 1.90351 35.2245 1.47226 35.6845 1.13301C36.1445 0.782262 36.662 0.520638 37.2744 0.336637C37.8868 0.152637 38.5279 0.0750122 39.2006 0.0750122C39.5399 0.0750122 39.8906 0.0893883 40.227 0.135388C40.5778 0.181388 40.8998 0.244638 41.2218 0.307888C41.5265 0.382638 41.8198 0.457388 42.0929 0.552263C42.3689 0.644263 42.5816 0.736263 42.7369 0.828263C42.9174 0.919002 43.0747 1.04979 43.1969 1.21064C43.2953 1.36033 43.3427 1.53781 43.332 1.71664V2.43826C43.332 2.76026 43.2113 2.92989 42.9813 2.92989C42.7776 2.90663 42.5804 2.84415 42.4005 2.74589C41.476 2.33607 40.4734 2.13203 39.4623 2.14789C38.5911 2.14789 37.9011 2.28589 37.4268 2.57914C36.9524 2.86664 36.708 3.31514 36.708 3.94476C36.708 4.37314 36.8604 4.74114 37.168 5.03439C37.4728 5.32476 38.0391 5.61514 38.8499 5.87676L41.0234 6.56676C42.1245 6.92039 42.9209 7.41201 43.3953 8.04164C43.8696 8.67126 44.0968 9.39289 44.0968 10.1921C44.0968 10.8534 43.9616 11.4485 43.7 11.9718C43.4292 12.4969 43.0488 12.9577 42.5845 13.323C42.1101 13.7054 41.5438 13.9843 40.8854 14.1826C40.1954 14.3983 39.4766 14.5046 38.6975 14.5046Z" fill="#8E8E93"/>
<path fill-rule="evenodd" clip-rule="evenodd" d="M41.5869 21.9624C36.5556 25.6913 29.2416 27.6722 22.954 27.6722C14.1421 27.6722 6.20136 24.4033 0.204108 18.9695C-0.270267 18.5383 0.158108 17.9547 0.721608 18.2939C7.21048 22.0688 15.2116 24.3573 23.4916 24.3573C29.072 24.3573 35.2072 23.19 40.8537 20.7952C41.6961 20.4128 42.4149 21.3472 41.5869 21.9624Z" fill="#8E8E93"/>
<path fill-rule="evenodd" clip-rule="evenodd" d="M43.6827 19.5675C43.0416 18.7424 39.4306 19.1708 37.7947 19.3691C37.306 19.4324 37.2283 19.0011 37.6711 18.6791C40.5461 16.6523 45.2755 17.2359 45.8246 17.9115C46.3766 18.6015 45.6722 23.3453 42.9783 25.6165C42.5672 25.9701 42.1705 25.789 42.3545 25.329C42.964 23.8053 44.3267 20.384 43.6827 19.5704V19.5675Z" fill="#8E8E93"/>
</svg>
