<svg width="44" height="42" viewBox="0 0 44 42" fill="none" xmlns="http://www.w3.org/2000/svg">
<path fill-rule="evenodd" clip-rule="evenodd" d="M43.1894 37.3297L31.6894 2.82968C31.4893 2.23462 31.1 1.72134 30.5808 1.36832C30.0616 1.0153 29.4411 0.841974 28.8144 0.8747H15.1868C14.584 0.873142 13.996 1.06101 13.5059 1.41182C13.0158 1.76266 12.6484 2.25865 12.4555 2.82968L0.811778 37.3297C0.660786 37.7745 0.621036 38.2494 0.69614 38.7132C0.771244 39.1772 0.958892 39.6154 1.24257 39.99C1.52625 40.3643 1.89742 40.6636 2.3235 40.8614C2.7496 41.0592 3.21765 41.1497 3.68679 41.1247H12.1105C12.7083 41.1204 13.2898 40.9295 13.7742 40.5791C14.2586 40.2289 14.6217 39.7361 14.813 39.1697L16.5667 34.0522L25.1917 40.5785C25.6929 40.9416 26.298 41.1331 26.9168 41.1247H40.3719C40.8362 41.14 41.2973 41.0422 41.7157 40.8404C42.1343 40.6383 42.4974 40.3381 42.7745 39.965C43.0514 39.5921 43.2337 39.1574 43.3058 38.6985C43.3783 38.2394 43.3383 37.7699 43.1894 37.3297ZM27.0318 39.2272C26.8228 39.2272 26.62 39.1565 26.4567 39.026L10.2131 26.9797L9.95426 26.7785H18.5793L18.8093 26.1747L21.6843 18.9009L28.1244 37.9622C28.1761 38.1221 28.1856 38.2926 28.1523 38.457C28.1189 38.6218 28.0439 38.775 27.9341 38.9024C27.8242 39.0294 27.6836 39.126 27.5255 39.183C27.3675 39.2399 27.1974 39.2551 27.0318 39.2272ZM40.4578 39.2272H29.7631C29.9779 38.6128 29.9779 37.9438 29.7631 37.3297L18.1193 2.82968H28.8144C29.0174 2.83069 29.2149 2.89492 29.3799 3.0134C29.5446 3.1319 29.6685 3.29886 29.7344 3.49096L41.3781 37.991C41.4172 38.1342 41.4236 38.2845 41.396 38.4306C41.3686 38.5766 41.3083 38.7143 41.2197 38.8336C41.1309 38.9527 41.0164 39.0501 40.8845 39.1183C40.7525 39.1864 40.6065 39.2238 40.4578 39.2272Z" fill="#8E8E93"/>
</svg>
