<svg width="46" height="38" viewBox="0 0 46 38" fill="none" xmlns="http://www.w3.org/2000/svg">
<path fill-rule="evenodd" clip-rule="evenodd" d="M9.55435 0.833313C6.92963 0.833313 4.98749 3.13059 5.07443 5.62199C5.15785 8.01554 5.04948 11.1155 4.26903 13.6435C3.48626 16.1789 2.16238 17.7851 0 17.9913V20.3193C2.16238 20.5255 3.48626 22.1317 4.26903 24.6672C5.04948 27.1951 5.15785 30.2952 5.07443 32.6887C4.98749 35.1798 6.92963 37.4773 9.55474 37.4773H36.4491C39.0739 37.4773 41.0157 35.1802 40.9287 32.6887C40.8453 30.2952 40.9536 27.1951 41.7341 24.6672C42.5172 22.1317 43.8376 20.5255 46 20.3193V17.9913C43.8376 17.7851 42.5172 16.1789 41.7341 13.6435C40.9536 11.1159 40.8453 8.01554 40.9287 5.62199C41.0157 3.13097 39.0739 0.833313 36.4491 0.833313H9.55435ZM31.1865 23.39C31.1865 26.8206 28.6275 28.9012 24.3811 28.9012H17.1525C16.9458 28.9012 16.7474 28.8189 16.6012 28.6727C16.455 28.5265 16.3729 28.3283 16.3729 28.1215V10.1893C16.3729 9.98246 16.455 9.78416 16.6012 9.63794C16.7474 9.49172 16.9458 9.40959 17.1525 9.40959H24.3399C27.8806 9.40959 30.2044 11.3275 30.2044 14.2723C30.2044 16.3391 28.6413 18.1897 26.6495 18.5136V18.6217C29.3608 18.9192 31.1865 20.7965 31.1865 23.39ZM23.593 11.8811H19.4712V17.7029H22.9427C25.6262 17.7029 27.1061 16.6222 27.1061 14.6906C27.1061 12.8806 25.8336 11.8811 23.593 11.8811ZM19.4712 20.013V26.4289H23.7446C26.5385 26.4289 28.0186 25.3076 28.0186 23.2006C28.0186 21.0932 26.4971 20.0126 23.5648 20.0126L19.4712 20.013Z" fill="#8E8E93"/>
</svg>
