<svg width="46" height="38" viewBox="0 0 46 38" fill="none" xmlns="http://www.w3.org/2000/svg">
<path d="M23.367 0.559776C15.1315 0.372901 7.82327 5.82247 5.66702 13.7747C5.56208 13.7977 5.76477 13.7373 5.66702 13.7747C-1.76054 18.6637 -1.84967 29.317 5.19552 34.7464L5.20271 34.7321L5.18833 34.7924C7.44233 36.4916 10.1822 37.3986 13.0055 37.39H22.9185L22.9788 37.4417H32.9292C45.7474 37.5467 50.898 20.955 40.282 13.7747C39.3692 10.398 37.489 7.36634 34.877 5.05197L34.7951 5.1339L34.8023 5.03615C31.6355 2.24309 27.5846 0.656089 23.3698 0.558339L23.367 0.559776ZM22.6784 8.51059C25.0589 8.42866 27.507 9.21497 29.357 10.7114C31.67 12.6434 32.9881 15.5184 32.9278 18.5285V19.5247C39.6955 19.3896 39.6955 29.6102 32.9278 29.4751H22.9774L22.963 29.4895V29.4147H13.0055C12.3011 29.4147 11.6053 29.2652 10.9613 28.9734C7.79452 27.5431 7.03839 23.3801 9.49364 20.9177C11.9575 18.4624 16.1119 19.2185 17.5494 22.3854L23.3224 16.6124C21.4062 14.1111 18.6361 12.3976 15.5441 11.791C15.5815 11.7766 15.6188 11.7464 15.649 11.7536C17.4603 9.76266 19.9989 8.59397 22.687 8.51203L22.6784 8.51059Z" fill="#8E8E93"/>
</svg>
