<svg width="42" height="46" viewBox="0 0 42 46" fill="none" xmlns="http://www.w3.org/2000/svg">
<path d="M41.4045 0.0449829L37.5781 41.4911L20.9997 45.9549L4.42113 41.4911L0.59549 0.0449829H41.4045ZM33.694 8.47241H20.9848H8.05045L8.66903 13.4774H20.9848H21.6766L20.9848 13.7654L9.11915 18.7073L9.51266 23.5996L20.9848 23.6368L27.1335 23.6563L26.7399 30.1795L20.9847 31.7998V31.7947L20.9376 31.8078L15.3795 30.4047L15.0422 26.3554H15.0238H9.86835H9.8502L10.525 34.1725L20.9849 37.2657V37.2601L21.0038 37.2657L31.4076 34.2288L32.7571 18.7073H20.9849H20.9559L20.9849 18.6947L33.1884 13.4774L33.694 8.47241Z" fill="#8E8E93"/>
</svg>
