<svg width="32" height="33" viewBox="0 0 32 33" fill="none" xmlns="http://www.w3.org/2000/svg">
<g clip-path="url(#clip0_10_3100)">
<path fill-rule="evenodd" clip-rule="evenodd" d="M16 0.5C24.2845 0.5 31 7.38489 31 15.8794C31 22.6729 26.707 28.4359 20.7505 30.4714C19.99 30.6229 19.72 30.1427 19.72 29.7332C19.72 29.2262 19.738 27.5702 19.738 25.5122C19.738 24.0782 19.258 23.1423 18.7195 22.6653C22.06 22.2843 25.57 20.9837 25.57 15.0767C25.57 13.3967 24.988 12.0257 24.025 10.9487C24.181 10.5602 24.6955 8.99593 23.878 6.87793C23.878 6.87793 22.621 6.46583 19.7575 8.45483C18.559 8.11433 17.275 7.94301 16 7.93701C14.725 7.94301 13.4425 8.11433 12.2455 8.45483C9.379 6.46583 8.119 6.87793 8.119 6.87793C7.3045 8.99593 7.819 10.5602 7.9735 10.9487C7.015 12.0257 6.4285 13.3967 6.4285 15.0767C6.4285 20.9687 9.931 22.2892 13.2625 22.6777C12.8335 23.0617 12.445 23.7391 12.31 24.7336C11.455 25.1266 9.283 25.8068 7.945 23.4563C7.945 23.4563 7.1515 21.9786 5.6455 21.8706C5.6455 21.8706 4.183 21.8512 5.5435 22.8052C5.5435 22.8052 6.526 23.2777 7.2085 25.0552C7.2085 25.0552 8.089 27.8001 12.262 26.8701C12.2695 28.1556 12.283 29.3672 12.283 29.7332C12.283 30.1397 12.007 30.6154 11.2585 30.4729C5.2975 28.4404 1 22.6744 1 15.8794C1 7.38489 7.717 0.5 16 0.5Z" fill="white"/>
</g>
<defs>
<clipPath id="clip0_10_3100">
<rect width="32" height="32" fill="white" transform="translate(0 0.5)"/>
</clipPath>
</defs>
</svg>
