<svg width="42" height="46" viewBox="0 0 42 46" fill="none" xmlns="http://www.w3.org/2000/svg">
<path d="M0.759369 0.0449829L4.44332 41.3658L20.9751 45.9548L37.5526 41.3593L41.2406 0.0449829H0.759369ZM33.556 9.85097L33.3254 12.4201L33.224 13.5595H33.2072H21H20.9823H13.8308L14.294 18.7489H20.9823H21H31.397H32.7627L32.639 20.1097L31.4481 33.452L31.3718 34.3076L21 37.1821V37.1832L20.9767 37.1897L10.5956 34.3077L9.88552 26.3506H12.2303H14.9728L15.3336 30.3923L20.9776 31.9165L20.9823 31.9152V31.9147L26.6349 30.3894L27.2227 23.8166H21H20.9823H9.65911L8.41361 9.85097L8.29223 8.49155H20.9824H21H33.6773L33.556 9.85097Z" fill="#8E8E93"/>
</svg>
