<svg width="34" height="46" viewBox="0 0 34 46" fill="none" xmlns="http://www.w3.org/2000/svg">
<path d="M11.4223 18.7207C10.9974 17.7813 10.807 16.6855 11.1316 15.6901C11.4561 14.6725 12.183 13.8562 12.9099 13.0956C14.9337 11.0714 17.4277 9.58409 19.4071 7.52657C20.5029 6.39697 21.4086 5.04383 21.7216 3.48926C21.979 2.3487 21.8561 1.17453 21.6213 0.0449219C22.6725 1.24155 23.0192 2.95254 22.7171 4.49587C22.393 6.22914 21.4309 7.76115 20.3016 9.08069C19.3959 10.1433 18.3556 11.0826 17.2711 11.9551C16.0074 12.9727 14.7662 14.0685 13.9724 15.5C13.301 16.6629 13.1444 18.0944 13.6031 19.3581C14.3525 21.5275 16.0968 23.1379 17.0475 25.1843C15.9961 24.256 14.9675 23.2943 14.0054 22.2769C12.9993 21.2032 12.0486 20.0627 11.4223 18.7207ZM17.1256 17.0207C16.9356 18.7989 17.8635 20.4763 18.9709 21.796C19.5074 22.3886 19.966 23.1155 19.9882 23.9432C20.0108 25.0499 19.3848 26.0791 18.5791 26.8057C18.7695 26.7836 18.9036 26.6157 19.0602 26.5263C20.268 25.7546 21.4307 24.7817 22.0234 23.4512C22.4149 22.5453 22.3255 21.4716 21.8112 20.6327C21.2071 19.6487 20.4133 18.7764 19.9437 17.7029C19.6861 17.0991 19.5968 16.3946 19.8093 15.7572C20.0891 14.8962 20.6928 14.1915 21.3304 13.5765C23.0859 11.9104 25.2106 10.7246 27.246 9.42758C24.6739 10.1656 22.1355 11.1833 19.966 12.7826C18.5904 13.8114 17.3158 15.2427 17.1256 17.0207ZM29.3487 25.4305C30.5677 25.4977 31.7639 26.3921 31.9878 27.6224C32.2004 28.6848 31.6861 29.7359 31.026 30.541C29.9412 31.8381 28.4761 32.7665 27.0004 33.5605C26.8547 33.6496 26.7318 33.7615 26.6199 33.8847C28.5659 33.3925 30.5114 32.6548 32.0884 31.391C32.9604 30.664 33.732 29.702 33.9 28.5502C34.0566 27.5551 33.643 26.5262 32.9048 25.8665C32.0099 25.0498 30.7466 24.7481 29.561 24.9048C28.8788 24.9942 28.1297 25.1395 27.66 25.7099C28.2194 25.5984 28.7669 25.3745 29.3487 25.4305ZM5.07054 28.6285C6.53527 29.0199 8.04509 29.1318 9.5436 29.2326C10.8855 29.322 12.2277 29.3445 13.5809 29.3332C17.0698 29.2776 20.5812 29.0424 24.003 28.2821C24.3272 28.2039 24.6852 28.148 24.9763 27.9467C25.5466 27.5775 26.1724 27.2866 26.7878 26.9959C24.003 27.4432 21.2073 27.8238 18.3893 28.0026C15.5377 28.1815 12.6635 28.2933 9.80091 28.1033C8.98459 28.0252 8.14572 27.9801 7.38537 27.6669C7.20622 27.5887 6.96014 27.4325 7.04953 27.1972C7.21745 26.8953 7.55293 26.7501 7.84366 26.5935C9.07398 26.0119 10.4158 25.6878 11.7243 25.3076C9.4763 25.2738 7.23964 25.844 5.1824 26.7276C4.72375 26.9514 4.20939 27.1302 3.84049 27.5105C3.69477 27.6668 3.69477 27.9357 3.86268 28.0695C4.19825 28.3715 4.64531 28.5056 5.07054 28.6285ZM23.187 31.7041C21.2298 32.0508 19.2614 32.3754 17.2819 32.4757C15.1125 32.6211 12.943 32.4979 10.796 32.2744C10.3824 32.2184 9.96847 32.1515 9.59957 31.9615C9.40946 31.8495 9.21944 31.6707 9.23067 31.4355C9.25286 31.0666 9.56579 30.8096 9.78968 30.541C9.09653 30.7871 8.40303 31.0441 7.82156 31.5031C7.57521 31.6932 7.3294 31.9949 7.39633 32.3304C7.4974 32.7217 7.87753 32.9566 8.21301 33.1354C9.04029 33.5606 9.96856 33.7504 10.8746 33.9183C13.1666 34.2875 15.504 34.2988 17.8076 34.1418C20.2461 33.9518 22.6725 33.5494 25.032 32.8559C24.3611 32.5542 23.7235 32.2071 23.187 31.7041ZM10.8967 35.5737C10.2705 35.7525 9.63299 35.9652 9.11872 36.3785C8.86105 36.5798 8.66007 36.9269 8.78325 37.2511C8.93985 37.6648 9.33129 37.9112 9.69992 38.1231C10.662 38.649 11.7466 38.8947 12.8089 39.0851C15.2135 39.465 17.6847 39.4093 20.078 38.9845C21.498 38.7159 22.9184 38.3357 24.2378 37.7433C23.3767 37.3853 22.5382 36.9826 21.7331 36.5131C20.3353 36.759 18.9259 37.0164 17.4945 37.1058C15.6049 37.2512 13.6924 37.0946 11.8024 36.8598C11.355 36.7591 10.796 36.7145 10.4941 36.3229C10.3378 35.9983 10.6955 35.7635 10.8967 35.5737ZM26.1951 42.764C27.7605 42.4402 29.3375 42.0705 30.7688 41.344C31.2159 41.0864 31.7639 40.8068 31.9097 40.2703C31.9878 39.756 31.451 39.4874 31.0708 39.2748C31.3055 39.5438 31.4621 39.9349 31.2271 40.2479C30.8357 40.7737 30.1651 40.9748 29.5722 41.1761C27.716 41.7017 25.7923 41.9143 23.8801 42.1269C18.8143 42.5852 13.7147 42.6972 8.64911 42.2722C6.94927 42.0931 5.21555 41.903 3.59414 41.2993C3.33719 41.1874 2.94574 41.0754 2.94574 40.7286C3.04609 40.4273 3.33719 40.259 3.59414 40.1136C4.75717 39.5211 6.05442 39.1966 7.35159 39.1184C6.97173 38.8946 6.52431 38.8724 6.0882 38.8837C5.00325 38.9172 3.94094 39.1966 2.91232 39.5438C2.02879 39.8675 1.12299 40.2257 0.418255 40.8744C0.138751 41.1202 -0.118202 41.5898 0.172173 41.9255C0.619595 42.4064 1.3131 42.5293 1.92772 42.6746C5.37215 43.2675 8.86105 43.6025 12.3506 43.7257C16.9803 43.8603 21.6435 43.6589 26.1951 42.764ZM30.7801 43.3681C28.6775 44.0391 26.497 44.408 24.3273 44.71C20.5812 45.1797 16.8012 45.325 13.0325 45.2134C10.7401 45.124 8.44777 44.9674 6.18856 44.5869C6.71415 44.9448 7.36291 45.0565 7.96693 45.2244C10.5056 45.7613 13.1109 45.8619 15.6944 45.9401C19.4849 46.0073 23.276 45.8619 27.0113 45.2691C28.7784 44.9565 30.5564 44.576 32.1441 43.7483C32.972 43.3122 33.8108 42.6409 33.9556 41.6683C33.1172 42.5627 31.9097 42.9767 30.7801 43.3681Z" fill="#8E8E93"/>
</svg>
