<svg width="46" height="46" viewBox="0 0 46 46" fill="none" xmlns="http://www.w3.org/2000/svg">
<path fill-rule="evenodd" clip-rule="evenodd" d="M35.2544 42.3939C31.2409 42.3939 28.6465 40.4805 27.3815 37.9781L30.9005 35.9397C31.8274 37.4531 33.0303 38.5643 35.1624 38.5643C36.9518 38.5643 38.0949 37.669 38.0949 36.4339C38.0949 34.5755 35.6155 33.8494 33.8652 33.0996C30.7464 31.7725 28.6764 30.1049 28.6764 26.5836C28.6764 23.3429 31.1466 20.8729 35.0083 20.8729C37.7545 20.8729 39.7325 21.8296 41.1516 24.3297L37.7867 26.4916C37.0461 25.1645 36.2434 24.6396 35.0083 24.6396C33.741 24.6396 32.9383 25.4428 32.9383 26.4916C32.9383 27.7888 33.741 28.3134 35.5948 29.1161C39.4795 30.7813 42.4189 32.0895 42.4189 36.3721C42.4189 40.2637 39.3622 42.3939 35.2544 42.3939ZM25.3 35.878C25.3 40.3561 22.5423 42.7229 18.7128 42.7229C15.2536 42.7229 13.1813 41.4 12.1624 39.1H12.1279H12.1118H12.1026L15.6193 36.6417C16.2978 37.8446 16.9096 38.6979 18.3908 38.6979C19.8122 38.6979 20.7 37.9782 20.7 35.8185V20.7H25.3V35.878ZM0 46H46V0H0V46Z" fill="#8E8E93"/>
</svg>
