<svg width="27" height="28" viewBox="0 0 27 28" fill="none" xmlns="http://www.w3.org/2000/svg">
<path fill-rule="evenodd" clip-rule="evenodd" d="M27 27.5H21.6V18.0513C21.6 15.4593 20.4566 14.0132 18.4059 14.0132C16.1744 14.0132 14.85 15.5201 14.85 18.0513V27.5H9.45V9.95H14.85V11.9236C14.85 11.9236 16.5442 8.95068 20.362 8.95068C24.1812 8.95068 27 11.2812 27 16.1034V27.5ZM3.2967 7.14321C1.47555 7.14321 0 5.6556 0 3.82095C0 1.98765 1.47555 0.5 3.2967 0.5C5.1165 0.5 6.59204 1.98765 6.59204 3.82095C6.59339 5.6556 5.1165 7.14321 3.2967 7.14321ZM0 27.5H6.75V9.95H0V27.5Z" fill="white"/>
</svg>
