<svg width="20" height="27" viewBox="0 0 20 27" fill="none" xmlns="http://www.w3.org/2000/svg">
<path d="M9.66667 1C8.52752 1.00049 7.3997 1.22606 6.34801 1.66375C5.29631 2.10145 4.34146 2.74265 3.53833 3.5505C1.91167 5.18672 0.999041 7.40045 1 9.70767C1 12.4737 1.716 14.4858 4.4685 17.8573C5.74719 19.311 6.86755 20.8966 7.81067 22.5873C8.80867 24.6202 8.691 26 9.66667 26C10.6423 26 10.5247 24.6202 11.5227 22.5873C12.4658 20.8966 13.5861 19.311 14.8648 17.8573C17.6173 14.4858 18.3333 12.4735 18.3333 9.70767C18.3343 7.40046 17.4216 5.18674 15.795 3.5505C14.9919 2.74265 14.037 2.10145 12.9853 1.66375C11.9336 1.22606 10.8058 1.00049 9.66667 1Z" stroke="white" stroke-width="2"/>
<path d="M9.66665 12.9999C11.5076 12.9999 13 11.5075 13 9.66659C13 7.82564 11.5076 6.33325 9.66665 6.33325C7.8257 6.33325 6.33331 7.82564 6.33331 9.66659C6.33331 11.5075 7.8257 12.9999 9.66665 12.9999Z" stroke="white" stroke-width="2"/>
</svg>
