<svg width="44" height="46" viewBox="0 0 44 46" fill="none" xmlns="http://www.w3.org/2000/svg">
<path d="M22 45.9147C21.3453 45.9147 20.7341 45.7458 20.1667 45.4507L14.3611 42.1184C13.4881 41.6543 13.9246 41.4857 14.1865 41.4011C15.3651 41.0216 15.5833 40.9373 16.8056 40.2623C16.9365 40.1779 17.1111 40.2201 17.2421 40.3044L21.6945 42.8776C21.8691 42.9619 22.0872 42.9619 22.2183 42.8776L39.6349 33.1336C39.8095 33.0493 39.8969 32.8806 39.8969 32.6696V13.2239C39.8969 13.013 39.8095 12.8443 39.6349 12.7599L22.2183 3.05816C22.0437 2.9738 21.8254 2.9738 21.6945 3.05816L4.27779 12.7599C4.1032 12.8443 4.0159 13.0552 4.0159 13.2239V32.6696C4.0159 32.8384 4.1032 33.0493 4.27779 33.1336L9.03572 35.7911C11.6111 37.0564 13.2262 35.5802 13.2262 34.1038V14.9112C13.2262 14.6581 13.4445 14.405 13.75 14.405H15.9762C16.2381 14.405 16.5 14.6159 16.5 14.9112V34.1038C16.5 37.4361 14.623 39.3766 11.3492 39.3766C10.3452 39.3766 9.55955 39.3766 7.33336 38.322L2.75002 35.7911C1.6151 35.1584 0.916687 33.9773 0.916687 32.7118V13.2661C0.916687 12.0007 1.6151 10.8196 2.75002 10.1869L20.1667 0.442907C21.2579 -0.147636 22.7422 -0.147636 23.8333 0.442907L41.2501 10.1869C42.3849 10.8196 43.0834 12.0007 43.0834 13.2661V32.7118C43.0834 33.9773 42.3849 35.1584 41.2501 35.7911L23.8333 45.535C23.266 45.788 22.6111 45.9147 22 45.9147ZM27.369 32.5431C19.7301 32.5431 18.1588 29.1686 18.1588 26.3003C18.1588 26.0471 18.3769 25.7941 18.6827 25.7941H20.9524C21.2144 25.7941 21.4325 25.9628 21.4325 26.2158C21.7817 28.4514 22.7857 29.5483 27.4127 29.5483C31.0795 29.5483 32.6507 28.7467 32.6507 26.8487C32.6507 25.7519 32.2143 24.9504 26.4961 24.402C21.7382 23.938 18.7699 22.9256 18.7699 19.256C18.7699 15.8392 21.7382 13.8145 26.7143 13.8145C32.3015 13.8145 35.0516 15.6705 35.4008 19.7198C35.4008 19.8465 35.3571 19.973 35.2699 20.0995C35.1825 20.1838 35.0516 20.2682 34.9207 20.2682H32.6507C32.4326 20.2682 32.2143 20.0995 32.1706 19.8887C31.6468 17.5686 30.2936 16.8094 26.7143 16.8094C22.6985 16.8094 22.2183 18.1592 22.2183 19.1715C22.2183 20.3949 22.7857 20.7744 28.1985 21.4494C33.5675 22.1243 36.0992 23.0945 36.0992 26.722C36.0555 30.434 32.9128 32.5431 27.369 32.5431Z" fill="#8E8E93"/>
</svg>
