<svg width="46" height="46" viewBox="0 0 46 46" fill="none" xmlns="http://www.w3.org/2000/svg">
<path fill-rule="evenodd" clip-rule="evenodd" d="M29.3112 42.4534C28.2026 42.4534 27.3056 41.5519 27.3056 40.4375C27.3056 39.3232 28.2026 38.4239 29.3112 38.4239C30.4198 38.4239 31.3168 39.3232 31.3168 40.4375C31.3168 41.5519 30.4198 42.4534 29.3112 42.4534ZM23.1656 46C34.845 46 34.1159 40.9092 34.1159 40.9092L34.1021 35.6354H22.9586V34.0519H38.5273C38.5273 34.0519 46 34.9051 46 23.0606C46 11.2162 39.4795 11.6336 39.4795 11.6336H35.5856V17.1321C35.5856 17.1321 35.7949 23.6862 29.1686 23.6862H18.1148C18.1148 23.6862 11.9048 23.5876 11.9048 29.7214V39.8614C11.9048 39.8614 10.9618 46 23.1656 46ZM16.6911 3.54658C17.7997 3.54658 18.6944 4.44806 18.6944 5.56245C18.6944 6.67685 17.7997 7.57607 16.6911 7.57607C15.5825 7.57607 14.6855 6.67685 14.6855 5.56245C14.6855 4.44806 15.5825 3.54658 16.6911 3.54658ZM22.8344 0C11.1573 0 11.8864 5.09077 11.8864 5.09077L11.9002 10.3646H23.0437V11.9481H7.47268C7.47268 11.9481 0 11.0949 0 22.9394C0 34.7838 6.5228 34.3664 6.5228 34.3664H10.4144V28.8679C10.4144 28.8679 10.2051 22.3138 16.8337 22.3138H27.8852C27.8852 22.3138 34.0952 22.4124 34.0952 16.2786V6.13857C34.0952 6.13857 35.0382 0 22.8344 0Z" fill="#8E8E93"/>
</svg>
