<svg width="48" height="47" viewBox="0 0 48 47" fill="none" xmlns="http://www.w3.org/2000/svg">
<path d="M46.8486 45.6211L45.8749 44.6934C45.3939 44.059 44.8821 43.4974 44.3244 42.9857L44.3148 42.978C43.7423 42.4579 43.1475 41.9634 42.5304 41.4945C42.0359 41.1546 41.3561 40.7451 40.491 40.2659C39.7799 39.9458 39.2241 39.3843 38.9232 38.6866L38.9155 38.6674L38.8235 38.6214C39.2299 38.5812 39.6017 38.5064 39.9582 38.401L39.9141 38.4125L41.0066 38.1116C41.4589 37.9697 41.9822 37.8777 42.5246 37.8567H42.5361C43.1073 37.8337 43.6459 37.7417 44.1595 37.5902L44.1116 37.6017C44.3595 37.5404 44.6144 37.4708 44.8764 37.3928C45.1383 37.3149 45.3625 37.2452 45.5491 37.1839V36.86C45.3638 36.5827 45.1396 36.2658 44.8764 35.9093C44.6253 35.5682 44.3435 35.2711 44.0273 35.0123L44.0177 35.0047C43.214 34.2942 42.3815 33.6068 41.5203 32.9423C40.7613 32.3501 39.9007 31.7463 39.0075 31.1867L38.8772 31.11C38.4057 30.7995 37.8652 30.512 37.2959 30.2762L37.2308 30.2532C36.6583 30.0207 36.0942 29.7658 35.5384 29.4885C35.3524 29.3965 35.1359 29.316 34.9116 29.2604L34.8905 29.2566C34.6663 29.2106 34.4746 29.0956 34.3347 28.9327L34.3328 28.9307C34.0683 28.5819 33.8364 28.1852 33.6524 27.7635L33.637 27.7252C33.4517 27.292 33.2511 26.8761 33.0352 26.4774C32.5714 25.5804 32.1229 24.6687 31.6897 23.7423C31.2565 22.8159 30.8406 21.8883 30.4419 20.9593C30.1647 20.3409 29.9097 19.7231 29.6772 19.1059C29.4204 18.4274 29.1309 17.8467 28.7936 17.3004L28.8185 17.3445C27.9905 15.9338 27.1644 14.7302 26.2674 13.5859L26.3211 13.6587C25.4337 12.5394 24.5137 11.5389 23.5247 10.6112L23.5094 10.5978C22.5338 9.68167 21.4834 8.80767 20.3814 7.99883L20.2874 7.93175C19.1425 7.09992 17.8903 6.28086 16.5308 5.47458C15.9845 5.15258 15.3501 4.89 14.6812 4.72133L14.6314 4.70983L12.4981 4.177L11.2925 4.085C10.8913 4.05433 10.4894 4.039 10.0869 4.039C9.80327 3.8895 9.55986 3.71125 9.34519 3.50425C9.13436 3.303 8.90627 3.11325 8.66861 2.93883L8.64944 2.92542C7.48986 2.24883 6.14244 1.62975 4.73369 1.14292L4.57077 1.09308C4.20086 0.8765 3.75619 0.75 3.28277 0.75C2.94544 0.75 2.62152 0.815167 2.32636 0.932083L2.34361 0.926333C1.61527 1.21575 1.05944 1.80417 0.819856 2.53633L0.814106 2.5555C0.674189 2.88517 0.593689 3.26658 0.593689 3.66908C0.593689 4.37442 0.842856 5.02033 1.25877 5.52442L1.25494 5.51867C1.95005 6.44506 2.48288 7.17339 2.85344 7.70367C3.13072 8.0755 3.41694 8.46203 3.71211 8.86325C3.98236 9.22358 4.22194 9.63567 4.41552 10.0707L4.43086 10.111C4.53819 10.3391 4.63211 10.6112 4.70111 10.8911L4.70686 10.9217C4.76819 11.185 4.84549 11.4712 4.93877 11.7804C5.21605 12.4909 5.47863 13.2192 5.72652 13.9654C5.99677 14.78 6.29577 15.47 6.64269 16.1274L6.60627 16.0507C6.79155 16.3906 6.97747 16.7229 7.16402 17.0474C7.35058 17.372 7.55119 17.6889 7.76586 17.9981C7.89044 18.1859 8.04761 18.3412 8.22777 18.4619L8.23352 18.4657C8.42327 18.6037 8.54786 18.8203 8.55744 19.0657C8.33894 19.3877 8.19136 19.7748 8.14152 20.1907L8.13961 20.2022C8.07252 20.6872 7.97669 21.1184 7.84636 21.5343L7.86169 21.4768C7.43427 22.7533 7.18894 24.2253 7.18894 25.7529C7.18894 26.2474 7.21386 26.7342 7.26561 27.2153L7.25986 27.1559C7.37486 28.9921 7.92877 30.6787 8.81619 32.1392L8.78936 32.0913C9.16694 32.6567 9.57136 33.1493 10.0179 33.5997C10.3399 33.9601 10.8076 34.1862 11.3289 34.1862C11.6203 34.1862 11.8963 34.1153 12.1378 33.9888L12.1282 33.9927C12.799 33.7512 13.2763 33.1378 13.3108 32.4076V32.4037C13.4028 31.4953 13.5408 30.6826 13.7305 29.8891L13.7056 30.0175C13.7516 29.8967 13.7784 29.7587 13.7784 29.6131C13.7784 29.5843 13.7765 29.5556 13.7746 29.5268V29.5307C13.7593 29.3914 13.8442 29.2598 14.0295 29.1358V29.2278C14.2148 29.661 14.4077 30.0935 14.6084 30.5254C14.809 30.9573 15.0172 31.3898 15.2332 31.823C15.7986 32.6836 16.3985 33.4349 17.0579 34.1268L17.0521 34.1211C17.7134 34.8341 18.434 35.4742 19.2122 36.0397L19.2544 36.0684C19.6607 36.3789 20.0172 36.7143 20.3392 37.0804L20.3469 37.0881C20.6497 37.4446 21.0119 37.7378 21.4202 37.9582L21.4394 37.9678V37.9218H21.5314C21.4566 37.7551 21.3359 37.6209 21.1864 37.5289L21.1825 37.527C21.0311 37.4427 20.9008 37.3583 20.7781 37.2663L20.7877 37.2721C20.5104 36.9948 20.2242 36.6856 19.929 36.3444C19.6339 36.0033 19.3636 35.6787 19.1183 35.3707C18.4692 34.4737 17.8501 33.5365 17.261 32.559C16.672 31.5815 16.1155 30.588 15.5916 29.5786C15.3437 29.0841 15.1041 28.5742 14.8729 28.0491C14.6416 27.5239 14.4173 27.0141 14.2001 26.5196C14.1062 26.3298 14.041 26.1113 14.0161 25.8794V25.8698C14.0046 25.6494 13.8781 25.4597 13.6941 25.3619L13.6903 25.36C13.4584 25.7548 13.2015 26.096 12.9083 26.4046L12.9102 26.4027C12.6054 26.7227 12.3563 27.1003 12.178 27.5143L12.1684 27.5392C11.8982 28.1947 11.7008 28.9557 11.6145 29.7511L11.6107 29.7875C11.5187 30.6066 11.4261 31.4486 11.3328 32.3137L11.2408 32.3597L11.1948 32.4057C10.6964 32.3041 10.2863 31.9859 10.0639 31.5566L10.0601 31.547C9.82755 31.0985 9.61927 30.6577 9.43527 30.2245C8.95994 29.0036 8.66477 27.591 8.62452 26.1152V26.0979C8.60727 25.8641 8.59961 25.59 8.59961 25.3159C8.59961 24.0394 8.80086 22.8089 9.17269 21.6551L9.14969 21.7394C9.24169 21.3995 9.4423 20.8271 9.75152 20.0221C10.0607 19.2171 10.1227 18.6606 9.93744 18.3527C9.84161 18.0364 9.66336 17.77 9.42952 17.5668L9.42761 17.5649C9.19377 17.3617 8.98102 17.149 8.78552 16.9228L8.77977 16.9152C8.56383 16.6034 8.35555 16.2712 8.15494 15.9185C7.95433 15.5658 7.77672 15.2183 7.62211 14.8758C7.30586 14.1437 6.98194 13.2256 6.71361 12.2826L6.67144 12.112C6.36669 11.0291 6.02744 10.1129 5.62494 9.23125L5.67477 9.35392C5.46202 8.87092 5.21477 8.45308 4.92727 8.07167L4.93877 8.087C4.62699 7.67044 4.34844 7.27625 4.10311 6.90442C3.79133 6.50319 3.48211 6.11667 3.17544 5.74483C2.86302 5.36725 2.58511 4.94175 2.35894 4.48558L2.34169 4.44725C2.24969 4.26133 2.16919 4.04475 2.11361 3.8205L2.10977 3.79942C2.08869 3.73233 2.07719 3.65375 2.07719 3.57517C2.07719 3.418 2.12319 3.27042 2.20369 3.14775L2.20177 3.15158C2.22286 3.04425 2.27269 2.95033 2.34169 2.87367C2.41644 2.80658 2.51227 2.75675 2.61577 2.73567H2.61961C2.78252 2.63025 2.97994 2.567 3.19461 2.567C3.35561 2.567 3.51086 2.60342 3.64694 2.66858L3.64119 2.66667C4.06094 2.7855 4.40019 2.90433 4.73177 3.04042L4.66277 3.0155C5.24927 3.26339 5.79041 3.50297 6.28619 3.73425C6.85736 4.00642 7.34419 4.29392 7.80419 4.614L7.76969 4.591C8.01758 4.74561 8.26483 4.91556 8.51144 5.10083C8.75805 5.28611 9.02063 5.47203 9.29919 5.65858H9.94894C10.4434 5.65858 10.9686 5.68222 11.5244 5.7295C12.086 5.77358 12.6054 5.879 13.0999 6.04383L13.0539 6.03042C13.9759 6.3045 14.7674 6.62842 15.5188 7.0175L15.4402 6.98108C16.1979 7.36697 16.9167 7.7765 17.5964 8.20967C18.7254 8.91308 19.7009 9.63375 20.619 10.4215L20.5864 10.3947C21.5448 11.215 22.4149 12.0564 23.2314 12.9457L23.2506 12.9687C24.0479 13.8389 24.8089 14.7838 25.5046 15.7747L25.564 15.8648C26.2042 16.7695 26.8501 17.816 27.4309 18.9008L27.5114 19.0637C27.6666 19.3589 27.8238 19.7212 27.9599 20.0911L27.9809 20.1543C28.1049 20.5096 28.2435 20.8737 28.3969 21.2468C28.7367 22.0199 29.1009 22.8 29.4894 23.5871C29.8778 24.3742 30.242 25.1396 30.5819 25.8832L31.6015 28.1085C31.9599 28.8867 32.3605 29.5575 32.8263 30.1766L32.8052 30.1478C33.1943 30.5637 33.7137 30.8551 34.2964 30.9567L34.3117 30.9586C35.017 31.1349 35.6112 31.3342 36.1862 31.57L36.0961 31.5374C36.3702 31.662 36.7229 31.7943 37.0851 31.9112L37.1618 31.9322C37.5681 32.0568 37.9208 32.2217 38.2447 32.4287L38.2274 32.4191C38.8542 32.7698 39.3851 33.1148 39.8911 33.4905L39.8509 33.4618C40.376 33.8476 40.9012 34.2118 41.4264 34.5542C41.6742 34.7395 42.0902 35.0098 42.6741 35.365C43.258 35.7202 43.5673 36.0524 43.6018 36.3617C43.3833 36.354 43.1245 36.3482 42.8658 36.3482C41.9228 36.3482 40.9951 36.4096 40.0866 36.5284L40.1939 36.5169C39.1666 36.6549 38.2351 36.906 37.3592 37.2644L37.4359 37.2376C37.2193 37.3315 36.9605 37.4177 36.6922 37.4848L36.6558 37.4925C36.3836 37.5327 36.1728 37.7512 36.1459 38.0234C36.2629 38.1691 36.3568 38.3397 36.42 38.5237L36.4239 38.5352C36.489 38.7307 36.5676 38.8993 36.6634 39.0565L36.6577 39.045C36.8858 39.4494 37.1311 39.7982 37.4071 40.1202L37.3994 40.1107C37.6697 40.4442 37.9744 40.7336 38.3118 40.9808L38.3252 40.9904C38.637 41.2383 38.9615 41.4932 39.2989 41.7552C39.6074 41.9967 39.9563 42.2343 40.3185 42.449L40.3645 42.4739C40.9089 42.8074 41.5414 43.1256 42.2007 43.392L42.2889 43.4227C43.0057 43.7102 43.6209 44.0437 44.1921 44.4404L44.1614 44.4193C44.5333 44.6353 44.9038 44.8749 45.2731 45.1381C45.6424 45.4013 45.9976 45.6562 46.3388 45.9028C46.4787 46.0408 46.6014 46.1942 46.7049 46.3609L46.7106 46.3705C46.885 46.5698 47.1265 46.7059 47.4006 46.7404H47.4064V46.6484C47.2377 46.52 47.1131 46.3417 47.0537 46.1367L47.0518 46.129C47.0039 45.9335 46.9329 45.7629 46.8371 45.6057L46.8409 45.6134L46.8486 45.6211ZM11.2446 8.8115C10.9967 8.8115 10.7648 8.81917 10.5489 8.8345C10.3284 8.84983 10.1234 8.89008 9.92977 8.95525L9.94702 8.9495V8.9955H10.039C10.163 9.18078 10.3189 9.38906 10.5067 9.62033C10.6945 9.85161 10.8645 10.0759 11.0165 10.2931L11.7583 11.8226L11.8503 11.7766C12.0669 11.6194 12.2336 11.4086 12.3333 11.1613L12.3371 11.1517C12.4368 10.8853 12.4943 10.5748 12.4943 10.2528C12.4943 10.2183 12.4943 10.1838 12.4924 10.1493V10.1551C12.4061 10.0707 12.3352 9.97108 12.2854 9.85992L12.2834 9.85417L12.1282 9.50533C12.0266 9.34433 11.8848 9.21783 11.718 9.13733L11.7123 9.13542C11.5321 9.04917 11.3788 8.93992 11.2446 8.8115Z" fill="#8E8E93"/>
</svg>
