<svg width="40" height="24" viewBox="0 0 40 24" fill="none" xmlns="http://www.w3.org/2000/svg">
<path fill-rule="evenodd" clip-rule="evenodd" d="M20 0.56897C14.8882 0.56897 11.6951 3.10855 10.4166 8.18964C12.3333 5.65005 14.5701 4.69747 17.125 5.33189C18.5836 5.69414 19.6262 6.74639 20.7781 7.9098C22.6584 9.80539 24.8338 12 29.5833 12C34.6951 12 37.8882 9.46039 39.1666 4.3793C37.25 6.91889 35.0151 7.87147 32.4583 7.23705C30.9997 6.8748 29.9571 5.82255 28.8032 4.65914C26.9249 2.76164 24.7514 0.56897 20 0.56897ZM10.4166 12C5.3049 12 2.11173 14.5396 0.833313 19.6206C2.74998 17.0791 4.98673 16.1285 7.54165 16.7629C9.00023 17.1251 10.0429 18.1774 11.1967 19.3408C13.0751 21.2364 15.2505 23.431 20.0019 23.431C25.1136 23.431 28.3068 20.8914 29.5852 15.8103C27.6686 18.3499 25.4318 19.3025 22.8769 18.6681C21.4183 18.3058 20.3756 17.2535 19.2237 16.0901C17.3416 14.1946 15.1661 12 10.4166 12Z" fill="#8E8E93"/>
</svg>
